<svg width="40" height="41" viewBox="0 0 40 41" fill="none" xmlns="http://www.w3.org/2000/svg">
<g filter="url(#filter0_d)">
<path d="M19.7288 2L20.4813 1.34138L19.3129 0.00651872L18.7757 1.69719L19.7288 2ZM4 16.6238L3.24393 15.9693C2.91203 16.3528 2.91967 16.9239 3.2617 17.2983L4 16.6238ZM18.0467 32L17.3084 32.6745C17.6212 33.0169 18.1284 33.0993 18.5335 32.8735L18.0467 32ZM8.39095 5.65732L8.86013 4.77421L8.39095 5.65732ZM14.0344 10.1615L13.3086 10.8494C13.6519 11.2116 14.2097 11.2653 14.6158 10.9751L14.0344 10.1615ZM32.1152 5.24273L33.0023 4.78115L32.3933 3.61066L31.431 4.51343L32.1152 5.24273ZM26.8723 10.1615L26.1198 10.8201C26.2984 11.0242 26.5523 11.147 26.8231 11.1603C27.094 11.1736 27.3587 11.0763 27.5565 10.8908L26.8723 10.1615ZM4.75811 4.92678L4.48526 3.96472L3.59847 4.21623L3.77706 5.12053L4.75811 4.92678ZM5.78728 11.7041L4.79117 11.7922L5.78728 11.7041ZM3.2617 17.2983L17.3084 32.6745L18.785 31.3255L4.7383 15.9494L3.2617 17.2983ZM18.0467 32C18.5335 32.8735 18.5337 32.8734 18.534 32.8733C18.5341 32.8732 18.5344 32.873 18.5348 32.8728C18.5354 32.8725 18.5363 32.872 18.5374 32.8714C18.5396 32.8701 18.5428 32.8683 18.5468 32.8661C18.555 32.8615 18.5667 32.8549 18.582 32.8463C18.6125 32.8291 18.6571 32.8038 18.7149 32.7708C18.8305 32.7047 18.9987 32.6078 19.2122 32.4823C19.6391 32.2314 20.2477 31.8664 20.9789 31.4072C22.4397 30.4898 24.3981 29.1917 26.3786 27.673C28.3539 26.1582 30.3796 24.4024 31.9567 22.5664C33.5112 20.7565 34.744 18.7385 34.9105 16.7055L32.9172 16.5422C32.8033 17.9326 31.9126 19.5482 30.4395 21.2633C28.9888 22.9522 27.0829 24.6125 25.1615 26.0859C23.2453 27.5554 21.342 28.8176 19.9153 29.7134C19.2028 30.1609 18.6112 30.5157 18.1989 30.758C17.9928 30.8791 17.8316 30.972 17.7226 31.0343C17.6681 31.0654 17.6267 31.0889 17.5993 31.1044C17.5856 31.1121 17.5754 31.1178 17.5688 31.1215C17.5655 31.1234 17.5631 31.1247 17.5616 31.1255C17.5609 31.126 17.5604 31.1262 17.5601 31.1264C17.56 31.1265 17.5599 31.1265 17.5599 31.1265C17.5599 31.1265 17.56 31.1265 18.0467 32ZM19.7288 2C18.7757 1.69719 18.7758 1.69697 18.7759 1.69676C18.7759 1.69672 18.776 1.69653 18.776 1.69644C18.776 1.69627 18.7761 1.69618 18.7761 1.69617C18.7761 1.69615 18.776 1.69644 18.7758 1.69704C18.7754 1.69825 18.7746 1.70071 18.7734 1.70439C18.771 1.71175 18.7669 1.724 18.7613 1.74088C18.7499 1.77467 18.7319 1.827 18.7072 1.89602C18.6578 2.03413 18.5815 2.23868 18.4771 2.49482C18.2682 3.00786 17.9485 3.72362 17.5093 4.52477C16.6234 6.14088 15.2877 8.0367 13.4529 9.34788L14.6158 10.9751C16.7934 9.41891 18.3049 7.23398 19.2631 5.48619C19.746 4.60539 20.0976 3.81841 20.3294 3.2492C20.4455 2.96421 20.5319 2.73276 20.5902 2.57014C20.6193 2.4888 20.6414 2.4246 20.6566 2.37943C20.6642 2.35684 20.6701 2.339 20.6743 2.32616C20.6764 2.31973 20.6781 2.31456 20.6793 2.31065C20.68 2.3087 20.6805 2.30707 20.6809 2.30576C20.6811 2.30511 20.6813 2.30453 20.6814 2.30404C20.6815 2.30379 20.6816 2.30349 20.6817 2.30336C20.6818 2.30307 20.6818 2.30281 19.7288 2ZM14.0344 10.1615C14.7601 9.47355 14.76 9.47345 14.7599 9.47334C14.7599 9.47329 14.7598 9.47317 14.7597 9.47307C14.7595 9.47286 14.7592 9.47261 14.759 9.47231C14.7584 9.47172 14.7576 9.47094 14.7567 9.46998C14.7549 9.46805 14.7524 9.4654 14.7492 9.46204C14.7427 9.45532 14.7336 9.44576 14.7218 9.4335C14.6982 9.40898 14.664 9.37365 14.6199 9.32864C14.5318 9.23865 14.4041 9.10982 14.2427 8.95121C13.9202 8.63432 13.4613 8.19688 12.9133 7.71194C11.8289 6.75245 10.3484 5.56492 8.86013 4.77421L7.92177 6.54042C9.20139 7.22026 10.5426 8.28482 11.588 9.20977C12.1048 9.66705 12.5378 10.0799 12.8409 10.3778C12.9924 10.5266 13.1109 10.6462 13.1909 10.7279C13.2308 10.7687 13.2611 10.8 13.281 10.8206C13.2909 10.8309 13.2982 10.8386 13.3029 10.8434C13.3052 10.8459 13.3068 10.8476 13.3078 10.8486C13.3083 10.8491 13.3086 10.8494 13.3087 10.8495C13.3088 10.8496 13.3088 10.8496 13.3088 10.8496C13.3088 10.8496 13.3087 10.8496 13.3087 10.8496C13.3087 10.8495 13.3086 10.8494 14.0344 10.1615ZM34.9105 16.7055C35.2017 13.1501 34.7351 10.1905 34.1923 8.11298C33.9209 7.07392 33.6299 6.2537 33.4038 5.68742C33.2907 5.40419 33.1938 5.18418 33.1234 5.03176C33.0882 4.95554 33.0597 4.89619 33.039 4.85425C33.0287 4.83328 33.0204 4.81666 33.0142 4.80445C33.0111 4.79835 33.0086 4.79335 33.0066 4.78946C33.0056 4.78752 33.0047 4.78586 33.004 4.78447C33.0037 4.78378 33.0033 4.78315 33.0031 4.7826C33.0029 4.78233 33.0027 4.78196 33.0027 4.78182C33.0025 4.78148 33.0023 4.78115 32.1152 5.24273C31.2281 5.70431 31.228 5.70401 31.2278 5.70374C31.2278 5.70367 31.2276 5.70341 31.2276 5.70327C31.2274 5.70299 31.2273 5.70279 31.2272 5.70264C31.2271 5.70236 31.2271 5.70236 31.2272 5.70262C31.2275 5.70314 31.2283 5.70475 31.2297 5.70744C31.2324 5.71281 31.2373 5.72249 31.2441 5.7364C31.2578 5.76422 31.2794 5.80897 31.3076 5.87011C31.364 5.99241 31.447 6.18014 31.5464 6.42898C31.7451 6.92686 32.009 7.66814 32.2573 8.61852C32.754 10.5198 33.1867 13.2508 32.9172 16.5422L34.9105 16.7055ZM31.431 4.51343L26.1881 9.43219L27.5565 10.8908L32.7994 5.97202L31.431 4.51343ZM27.6248 9.50286L20.4813 1.34138L18.9763 2.65862L26.1198 10.8201L27.6248 9.50286ZM8.86013 4.77421C7.64781 4.13012 6.5996 3.91089 5.82543 3.86341C5.44029 3.8398 5.1271 3.85891 4.89937 3.88702C4.78555 3.90107 4.69306 3.91736 4.62356 3.9317C4.5888 3.93887 4.55977 3.94556 4.53666 3.95123C4.5251 3.95407 4.51503 3.95666 4.50645 3.95893C4.50217 3.96006 4.49825 3.96112 4.49472 3.96209C4.49295 3.96257 4.49128 3.96303 4.48971 3.96347C4.48892 3.96369 4.48815 3.96391 4.48741 3.96412C4.48704 3.96422 4.4865 3.96437 4.48632 3.96442C4.48579 3.96457 4.48526 3.96472 4.75811 4.92678C5.03097 5.88883 5.03045 5.88898 5.02994 5.88912C5.02978 5.88917 5.02928 5.88931 5.02895 5.8894C5.0283 5.88959 5.02767 5.88976 5.02706 5.88993C5.02584 5.89027 5.02471 5.89059 5.02366 5.89087C5.02156 5.89145 5.01979 5.89193 5.01835 5.89231C5.01548 5.89307 5.01393 5.89345 5.01369 5.89351C5.0132 5.89363 5.0179 5.89247 5.02761 5.89046C5.04705 5.88645 5.08644 5.8791 5.14438 5.87195C5.26018 5.85766 5.45005 5.84415 5.70301 5.85966C6.20505 5.89045 6.97326 6.03649 7.92177 6.54042L8.86013 4.77421ZM4.75811 4.92678C3.77706 5.12053 3.77706 5.12051 3.77706 5.1205C3.77706 5.12052 3.77706 5.12053 3.77707 5.12056C3.77708 5.12063 3.77711 5.12077 3.77715 5.12096C3.77722 5.12134 3.77734 5.12196 3.77751 5.12281C3.77785 5.12452 3.77837 5.12717 3.77907 5.13074C3.78047 5.13788 3.78259 5.1487 3.78539 5.16306C3.79099 5.19178 3.7993 5.23462 3.81001 5.29035C3.83143 5.40183 3.86243 5.56482 3.90046 5.76952C3.97656 6.17905 4.08067 6.75469 4.19253 7.41798C4.41724 8.75055 4.66925 10.4139 4.79117 11.7922L6.78339 11.616C6.65439 10.1577 6.39182 8.43234 6.16468 7.08541C6.05061 6.40895 5.94448 5.82214 5.86681 5.40415C5.82796 5.19508 5.7962 5.02805 5.77408 4.91294C5.76302 4.85538 5.75436 4.81078 5.74844 4.78039C5.74548 4.76519 5.7432 4.75355 5.74164 4.7456C5.74086 4.74163 5.74026 4.73858 5.73985 4.73648C5.73964 4.73543 5.73948 4.73461 5.73936 4.73404C5.73931 4.73375 5.73926 4.73352 5.73923 4.73335C5.73921 4.73327 5.7392 4.73319 5.73919 4.73315C5.73918 4.73308 5.73916 4.73303 4.75811 4.92678ZM4.79117 11.7922C4.88172 12.8159 4.52732 13.845 4.09406 14.6707C3.88222 15.0744 3.66336 15.407 3.49858 15.637C3.41655 15.7515 3.3489 15.8392 3.30358 15.8962C3.28096 15.9246 3.26399 15.9453 3.25369 15.9577C3.24854 15.9639 3.24507 15.968 3.2434 15.9699C3.24256 15.9709 3.24218 15.9714 3.24226 15.9713C3.2423 15.9712 3.24246 15.971 3.24274 15.9707C3.24287 15.9706 3.24304 15.9704 3.24324 15.9701C3.24334 15.97 3.24351 15.9698 3.24356 15.9698C3.24374 15.9696 3.24393 15.9693 4 16.6238C4.75607 17.2783 4.75628 17.2781 4.75649 17.2778C4.75657 17.2778 4.75678 17.2775 4.75694 17.2773C4.75726 17.2769 4.75762 17.2765 4.758 17.2761C4.75876 17.2752 4.75965 17.2742 4.76066 17.273C4.76268 17.2706 4.76519 17.2677 4.76816 17.2642C4.7741 17.2572 4.78192 17.2479 4.79149 17.2364C4.81061 17.2134 4.83674 17.1815 4.8688 17.1412C4.93287 17.0607 5.02096 16.9462 5.12438 16.8018C5.33052 16.5141 5.60144 16.1024 5.86506 15.6C6.38272 14.6134 6.92196 13.1826 6.78339 11.616L4.79117 11.7922Z" fill="#5DC55B"/>
</g>
<defs>
<filter id="filter0_d" x="0" y="0.0065918" width="40" height="40.9935" filterUnits="userSpaceOnUse" color-interpolation-filters="sRGB">
<feFlood flood-opacity="0" result="BackgroundImageFix"/>
<feColorMatrix in="SourceAlpha" type="matrix" values="0 0 0 0 0 0 0 0 0 0 0 0 0 0 0 0 0 0 127 0"/>
<feOffset dx="1" dy="4"/>
<feGaussianBlur stdDeviation="2"/>
<feColorMatrix type="matrix" values="0 0 0 0 0.645833 0 0 0 0 0.645833 0 0 0 0 0.645833 0 0 0 0.25 0"/>
<feBlend mode="normal" in2="BackgroundImageFix" result="effect1_dropShadow"/>
<feBlend mode="normal" in="SourceGraphic" in2="effect1_dropShadow" result="shape"/>
</filter>
</defs>
</svg>


